<svg width="584" height="620" fill="none" xmlns="http://www.w3.org/2000/svg"><path d="m241.032 610.998-9.319-409.631H58.033l2.542 409.631h180.457Z" fill="#F1F6FF"/><path d="M302.879 608.881v-271.11l209.687 6.119v264.991H302.879Z" fill="#FEFCED"/><path d="m58.033 201.367 2.542 409.631h98.701l-4.66-409.631H58.033Z" fill="#7398F7"/><path d="M182.997 159.855h-72.014v41.514h72.014v-41.514Z" fill="#1F1D42"/><path d="M110.983 159.855v41.514h48.715c-23.383-5.084-30.641-29.794-31.347-41.514h-17.368Z" fill="#1F1717"/><path d="m152.498 89.111-8.472-.847c-2.118-.847-2.542-10.59 5.507-8.472 6.439 1.694 4.659 6.919 2.965 9.32Z" fill="#0E173D"/><path d="m152.499 89.112-8.473-.847v12.284l8.473.847V89.112Z" fill="#0E173D"/><path d="m144.025 100.548 8.473.848 31.347 22.451H110.56l33.465-23.299Z" fill="#1F1D42"/><path d="M323.636 403.007h-6.777v48.291h-2.966v5.083h12.709v-6.777h-2.966v-46.597Z" fill="#1B2A63"/><path d="M512.566 612.269H302.879V473.325l209.687 3.06v135.884Z" fill="#A3BDFF"/><path d="m448.177 242.458-226.631-7.201 81.333 102.513 217.735 6.354-72.437-101.666Z" fill="#063183"/><path d="m302.879 337.77 217.735 6.354-204.603-105.865-94.465-3.002 81.333 102.513Z" fill="#7087FB"/><path d="m221.546 235.257 81.333 102.513v268.145l-149.958 7.202V337.77l40.243-52.951h-8.896l37.278-49.562Z" fill="#CFDEF3"/><path d="M250.776 297.527h-44.479v53.375h44.479v-53.375Z" fill="#0C183F"/><path fill="#1F326B" d="M211.38 303.033h15.25v18.639h-15.25zM232.56 303.033h15.25v18.639h-15.25zM232.56 328.451h15.25v18.639h-15.25z"/><path d="M110.562 123.846h78.367v2.118h-84.298v-2.118h5.931Z" stroke="#000"/><path d="M150.804 378.012H512.99" stroke="#000" stroke-width="4"/><path d="M151.652 486.457h359.645" stroke="#000" stroke-width="5"/><path d="M151.652 486.457h149.534" stroke="#5267FA" stroke-width="6"/><path fill="#1F326B" d="M211.38 328.451h15.25v18.639h-15.25z"/><path d="M113.525 289.901h-22.45v61h24.145l-1.695-61Z" fill="#0E173D"/><path d="M113.525 395.381h-22.45v61h24.145l-1.695-61Z" fill="#0C193F"/><path d="M114.797 267.027H91.922V220.43c5.423-15.25 14.403-6.354 18.216 0l4.659 46.597Z" fill="#1F1D42"/><path d="M352.019 247.117h-24.145l-21.181-6.354V199.25l21.181-.573 25.84-.698-.117 3.389-1.578 45.749Z" fill="#1F326B"/><path d="M352.019 247.117h-24.145V198.677l25.84-.698-.117 3.389-1.578 45.749Z" fill="#FEFDE8"/><path d="m306.693 199.25 21.181-.573 25.84-.698-.117 3.389H306.693v-2.118Z" fill="#112F7F"/><path fill="#0C1942" d="M180.881 125.966h1.694v33.889h-1.694zM241.032 166.632v1.694H51.255v-1.694zM241.032 199.673v1.694H51.255v-1.694z"/><path d="M58.001 231.867h174.5" stroke="#18265D" stroke-width="4"/><path fill="#081334" d="M241.032 186.118v1.694H51.255v-1.694z"/><path fill="#132355" d="M110.56 125.966h1.694v33.889h-1.694zM128.352 131.895h1.694v27.958h-1.694zM131.741 131.895h1.694v27.958h-1.694zM136.824 131.895h1.694v27.958h-1.694z"/><path d="m221.546 235.257 5.713 8.896m75.62 93.617-6.159-7.625m-69.461-85.992 226.049 5.507m-226.049-5.507 10.265 12.708m0 0 224.537 5.083m-224.537-5.083 11.292 13.979m0 0 221.998 3.389m-221.998-3.389 9.16 11.341m0 0 221.59 4.333m-221.59-4.333 11.028 13.652m0 0 219.416 3.106m-219.416-3.106 9.239 11.437m0 0 219.496 4.749m-219.496-4.749 12.318 15.25m0 0h214.66m-214.66 0 6.159 7.625m0 0 216.198 3.177" stroke="#A3BDFF" stroke-width="4"/><path fill="#121B3A" d="M83.451 168.327h1.694v31.347h-1.694zM51.256 168.327h1.694v31.347h-1.694zM239.338 168.327h1.694v31.347h-1.694z"/><path d="M377.436 511.026H363.88v68.625h13.556v-68.625Z" fill="#0C183F"/><path d="M363.88 579.651h13.556v-34.312H363.88v34.312ZM489.691 548.304H467.24v32.195h22.451v-32.195Z" fill="#17275F"/><path d="M148.687 79.791 146.992 1" stroke="#000" stroke-width="3"/><path fill="#121B3A" d="M210.534 168.327h1.694v31.347h-1.694zM151.227 168.327h1.694v31.347h-1.694zM77.519 168.327h1.694v31.347h-1.694zM204.602 168.327h1.694v31.347h-1.694z"/><path fill="#121B3A" d="M204.602 168.327h1.694v31.347h-1.694zM145.298 168.327h1.694v31.347h-1.694zM158.853 131.895h1.694v27.958h-1.694zM162.241 131.895h1.694v27.958h-1.694zM152.921 131.895h1.694v27.958h-1.694z"/><path d="M467.24 580.499h22.451v-16.097H467.24v16.097Z" fill="#0F1C49"/><path d="M503.67 556.353h-8.472v17.792l8.472-.424v-17.368Z" fill="#FAF2E2"/><path d="M200.365 511.449v37.278h4.236v55.917h7.202v-58.459h-4.66v-28.381h41.514v28.381h-6.778v58.459h4.236v-55.917h8.049v-37.278h-53.799Z" fill="#0D0808"/><path d="M241.881 546.186v58.458h-30.076v-58.458h-4.66v-28.382h41.514v28.382h-6.778Z" fill="#17275F"/><path d="M584 611.421H0V620h584v-8.579Z" fill="#091D39"/><path d="M571.873 611.422v-34.736m-61.847 0v34.736m-63.541-34.736v34.736m-60.576-34.736v34.736m-62.695-34.736v34.736m-63.965-34.736v34.736m-57.611-34.736v34.736m-64.812-34.736v34.736m-62.694-34.736v34.736m-59.729-34.736v34.736" stroke="#000" stroke-width="4"/><path d="M571.873 582c-13.273 11.579-44.225 27.789-61.847 0-14.403 8.755-47.275 20.78-63.541-.231-12.709 8.472-42.616 21.519-60.577 5.93-12.567 5.79-42.699 13.895-62.694 0-17.509 3.672-54.815 8.811-63.965 0-11.861 3.672-39.989 8.811-57.611 0-17.085 3.672-53.968 8.811-64.812 0-18.074 6.213-47.02 14.403-62.694 0-17.051 3.672-50.763 9.612-60.632.801" stroke="#000" stroke-width="3"/><circle cx="571.965" cy="574.965" r="2.965" fill="#06162A"/><circle cx="510.026" cy="574.568" r="2.965" fill="#06162A"/><circle cx="446.484" cy="575.416" r="2.965" fill="#06162A"/><circle cx="385.965" cy="574.965" r="2.965" fill="#06162A"/><circle cx="322.965" cy="574.965" r="2.965" fill="#06162A"/><circle cx="259.249" cy="575.416" r="2.965" fill="#06162A"/><circle cx="201.639" cy="574.568" r="2.965" fill="#06162A"/><circle cx="136.965" cy="574.568" r="2.965" fill="#06162A"/><circle cx="73.965" cy="576.262" r="2.965" fill="#06162A"/><circle cx="13.965" cy="577.965" r="2.965" fill="#06162A"/><path d="m56.764 45.479 12.708 11.014 12.709-11.014M8.472 38.702 21.18 49.716l12.708-11.014M63.541 16.675 76.25 27.689l12.708-11.014M133.014 20.91l12.708 11.014 12.709-11.014" stroke="#000" stroke-width="4"/><path d="M255.86 390.298h-45.749l1.694 67.778h44.055v-67.778Z" fill="#0F1F4C"/><path d="M244.847 401.736h-23.722v44.902h23.722v-44.902Z" fill="#142553"/></svg>