<svg width="515" height="408" fill="none" xmlns="http://www.w3.org/2000/svg"><g clip-path="url(#a)"><path d="M309.978 104.188h-2.403V38.196a38.246 38.246 0 0 0-11.16-27.009A38.055 38.055 0 0 0 269.473 0H129.998a38.056 38.056 0 0 0-26.943 11.187 38.244 38.244 0 0 0-11.16 27.009v362.045a38.243 38.243 0 0 0 11.16 27.008 38.053 38.053 0 0 0 26.943 11.188h139.475a38.057 38.057 0 0 0 26.942-11.188 38.244 38.244 0 0 0 11.159-27.008V151.163h2.403l.001-46.975Z" fill="#F4F4F4"/><path d="M271.01 9.934h-18.205a13.59 13.59 0 0 1-1.297 12.677 13.53 13.53 0 0 1-4.864 4.401 13.495 13.495 0 0 1-6.357 1.591h-79.903c-2.217 0-4.4-.546-6.356-1.591a13.52 13.52 0 0 1-4.863-4.401 13.575 13.575 0 0 1-1.298-12.677h-17.004a28.417 28.417 0 0 0-20.12 8.354 28.557 28.557 0 0 0-8.334 20.17v361.519c0 7.565 2.997 14.82 8.334 20.17a28.418 28.418 0 0 0 20.12 8.354H271.01a28.42 28.42 0 0 0 20.12-8.354 28.563 28.563 0 0 0 8.334-20.17V38.457a28.56 28.56 0 0 0-8.334-20.169 28.419 28.419 0 0 0-20.12-8.354Z" fill="#fff"/><path d="M200.936 223.779a65.91 65.91 0 0 1-36.682-11.155 66.152 66.152 0 0 1-24.318-29.704 66.34 66.34 0 0 1-3.757-38.242 66.237 66.237 0 0 1 18.069-33.889 65.975 65.975 0 0 1 33.807-18.115 65.876 65.876 0 0 1 38.148 3.767 66.064 66.064 0 0 1 29.631 24.378 66.301 66.301 0 0 1 11.127 36.772 66.347 66.347 0 0 1-19.36 46.78 66.02 66.02 0 0 1-46.665 19.408Zm0-131.116a64.655 64.655 0 0 0-35.984 10.943 64.888 64.888 0 0 0-23.854 29.138 65.077 65.077 0 0 0-3.686 37.513 64.975 64.975 0 0 0 17.726 33.244 64.719 64.719 0 0 0 33.162 17.77 64.623 64.623 0 0 0 37.421-3.695 64.798 64.798 0 0 0 29.067-23.914 65.038 65.038 0 0 0 10.916-36.071 65.085 65.085 0 0 0-18.992-45.889 64.76 64.76 0 0 0-45.776-19.039Z" fill="#3F3D56"/><path d="M225.186 138.363c5.655-4.79 9.09-12.356 8.189-19.722-.901-7.367-6.48-14.138-13.717-15.703-7.236-1.564-15.486 2.766-17.684 9.853-1.21-13.663-2.604-27.898-9.85-39.533-6.561-10.536-17.925-18.074-30.241-19.423-12.317-1.348-25.284 3.745-32.965 13.49-7.681 9.745-9.562 23.912-4.182 35.1 3.963 8.242 11.264 14.376 18.914 19.366 24.406 15.92 54.681 21.299 83.489 17.049l-1.953-.477Z" fill="#CFDEF3"/><path d="M141.097 57.863a200.015 200.015 0 0 1 27.834 27.707 200.928 200.928 0 0 1 31.35 52.518c.564 1.386-1.682 1.99-2.24.619a199.64 199.64 0 0 0-58.587-79.198c-1.16-.946.493-2.585 1.643-1.646Z" fill="#fff"/><path d="M144.555 288.706c3.821 0 6.917-3.104 6.917-6.934 0-3.829-3.096-6.934-6.917-6.934-3.82 0-6.917 3.105-6.917 6.934 0 3.83 3.097 6.934 6.917 6.934Z" fill="#17275F"/><path d="M259.203 286.815h-88.034a5.022 5.022 0 0 1-3.557-1.477 5.05 5.05 0 0 1 0-7.132 5.022 5.022 0 0 1 3.557-1.477h88.034c1.334 0 2.614.531 3.557 1.477a5.049 5.049 0 0 1 0 7.132 5.022 5.022 0 0 1-3.557 1.477Z" fill="#DAE9FF"/><path d="M231.9 286.876h-61.094a5.086 5.086 0 0 1-3.6-1.495 5.11 5.11 0 0 1 0-7.218 5.085 5.085 0 0 1 3.6-1.494H231.9c1.35 0 2.645.537 3.6 1.494a5.11 5.11 0 0 1 0 7.218 5.086 5.086 0 0 1-3.6 1.495Z" fill="#5784F5"/><path d="M144.555 318.964c3.821 0 6.917-3.105 6.917-6.934 0-3.83-3.096-6.934-6.917-6.934-3.82 0-6.917 3.104-6.917 6.934 0 3.829 3.097 6.934 6.917 6.934Z" fill="#17275F"/><path d="M259.203 317.072h-88.034a5.022 5.022 0 0 1-3.557-1.477 5.048 5.048 0 0 1 0-7.131 5.022 5.022 0 0 1 3.557-1.477h88.034c1.334 0 2.614.531 3.557 1.477a5.045 5.045 0 0 1 0 7.131 5.022 5.022 0 0 1-3.557 1.477Z" fill="#DAE9FF"/><path d="M144.555 349.221c3.821 0 6.917-3.104 6.917-6.934s-3.096-6.934-6.917-6.934c-3.82 0-6.917 3.104-6.917 6.934s3.097 6.934 6.917 6.934Z" fill="#17275F"/><path d="M259.203 347.33h-88.034a5.022 5.022 0 0 1-3.557-1.477 5.052 5.052 0 0 1 0-7.132 5.022 5.022 0 0 1 3.557-1.477h88.034c1.334 0 2.614.531 3.557 1.477a5.047 5.047 0 0 1 0 7.132 5.022 5.022 0 0 1-3.557 1.477Z" fill="#DAE9FF"/><path d="M211.778 317.133h-40.972a5.082 5.082 0 0 1-3.6-1.495 5.108 5.108 0 0 1 0-7.217 5.086 5.086 0 0 1 3.6-1.495h40.972c1.35 0 2.645.538 3.6 1.495a5.108 5.108 0 0 1 0 7.217 5.082 5.082 0 0 1-3.6 1.495ZM248.249 347.391h-77.443a5.086 5.086 0 0 1-3.6-1.495 5.108 5.108 0 0 1-1.491-3.609c0-1.354.536-2.652 1.491-3.609a5.086 5.086 0 0 1 3.6-1.495h77.443c1.35 0 2.645.538 3.6 1.495a5.108 5.108 0 0 1 1.491 3.609 5.108 5.108 0 0 1-1.491 3.609 5.086 5.086 0 0 1-3.6 1.495Z" fill="#5784F5"/><path d="M235.893 147.299h-8.642v-25.602a2.843 2.843 0 0 1 .83-2.005 2.83 2.83 0 0 1 2-.831h2.983a2.834 2.834 0 0 1 2.829 2.836v25.602Z" fill="#3F3D56"/><path d="M241.133 190.865H158.52l-.297-46.676a5.385 5.385 0 0 1 1.615-3.873l20.754-20.263a5.315 5.315 0 0 1 3.68-1.52l34.734-.318a5.377 5.377 0 0 1 4.141 1.91l.003.004 16.498 20.282a6.647 6.647 0 0 1 1.485 4.183v46.271Z" fill="#161B3D"/><path d="M241.134 190.865h-44.396v-41.831c0-1.275.453-2.507 1.278-3.477l19.29-22.671a5.337 5.337 0 0 1 4.066-1.881h.02a5.321 5.321 0 0 1 4.073 1.912l14.417 17.205a5.378 5.378 0 0 1 1.252 3.446v47.297Z" fill="#7398F6"/><path d="M222.301 174.798h-6.423c-.417 0-.816-.166-1.111-.462a1.58 1.58 0 0 1-.461-1.114v-5.398a1.58 1.58 0 0 1 .461-1.114 1.567 1.567 0 0 1 1.111-.462h6.423a1.576 1.576 0 0 1 1.572 1.576v5.398a1.576 1.576 0 0 1-1.572 1.576ZM222.301 160.964h-6.423c-.417 0-.816-.166-1.111-.462a1.58 1.58 0 0 1-.461-1.114v-5.273a1.576 1.576 0 0 1 1.572-1.576h6.423a1.574 1.574 0 0 1 1.572 1.576v5.273a1.576 1.576 0 0 1-1.572 1.576ZM182.578 172.697h-6.423a1.575 1.575 0 0 1-1.572-1.576v-5.399a1.578 1.578 0 0 1 1.572-1.576h6.423a1.574 1.574 0 0 1 1.572 1.576v5.399a1.575 1.575 0 0 1-1.572 1.576ZM182.578 158.863h-6.423a1.575 1.575 0 0 1-1.572-1.576v-5.273a1.576 1.576 0 0 1 1.572-1.576h6.423a1.576 1.576 0 0 1 1.572 1.576v5.273a1.575 1.575 0 0 1-1.572 1.576Z" fill="#fff"/><path d="M257.121 191.411H144.749a.629.629 0 0 1-.444-1.076.63.63 0 0 1 .444-.185h112.372a.63.63 0 0 1 0 1.261Z" fill="#3F3D56"/></g><defs><clipPath id="a"><path fill="#fff" d="M0 0h515v439.363H0z"/></clipPath></defs></svg>